<?xml version="1.0" encoding="UTF-8"?>
<svg width="64px" height="64px" viewBox="0 0 64 64" version="1.1" xmlns="http://www.w3.org/2000/svg" xmlns:xlink="http://www.w3.org/1999/xlink">
    <!-- Generator: Sketch 52.4 (67378) - http://www.bohemiancoding.com/sketch -->
    <title>64/Bar/WIFI</title>
    <desc>Created with Sketch.</desc>
    <g id="64/Bar/WIFI" stroke="none" stroke-width="1" fill="none" fill-rule="evenodd">
        <path d="M47.5198052,47.3198052 C43.6538119,47.3198052 40.5198052,44.1857984 40.5198052,40.3198052 C40.5198052,36.4538119 43.6538119,33.3198052 47.5198052,33.3198052 C51.3857984,33.3198052 54.5198052,36.4538119 54.5198052,40.3198052 C54.5198052,44.1857984 51.3857984,47.3198052 47.5198052,47.3198052 Z M47.5198052,2.31980515 C49.1766594,2.31980515 50.5198052,3.6629509 50.5198052,5.31980515 C50.5198052,6.9766594 49.1766594,8.31980515 47.5198052,8.31980515 C29.8466932,8.31980515 15.5198052,22.6466932 15.5198052,40.3198052 C15.5198052,41.9766594 14.1766594,43.3198052 12.5198052,43.3198052 C10.8629509,43.3198052 9.51980515,41.9766594 9.51980515,40.3198052 C9.51980515,19.3329847 26.5329847,2.31980515 47.5198052,2.31980515 Z M47.5198052,12.3198052 C49.1766594,12.3198052 50.5198052,13.6629509 50.5198052,15.3198052 C50.5198052,16.9766594 49.1766594,18.3198052 47.5198052,18.3198052 C35.3695407,18.3198052 25.5198052,28.1695407 25.5198052,40.3198052 C25.5198052,41.9766594 24.1766594,43.3198052 22.5198052,43.3198052 C20.8629509,43.3198052 19.5198052,41.9766594 19.5198052,40.3198052 C19.5198052,24.8558322 32.0558322,12.3198052 47.5198052,12.3198052 Z M47.5198052,22.3198052 C49.1766594,22.3198052 50.5198052,23.6629509 50.5198052,25.3198052 C50.5198052,26.9766594 49.1766594,28.3198052 47.5198052,28.3198052 C40.8923882,28.3198052 35.5198052,33.6923882 35.5198052,40.3198052 C35.5198052,41.9766594 34.1766594,43.3198052 32.5198052,43.3198052 C30.8629509,43.3198052 29.5198052,41.9766594 29.5198052,40.3198052 C29.5198052,30.3786797 37.5786797,22.3198052 47.5198052,22.3198052 Z" id="Oval-2" fill="#B5BBC7" transform="translate(32.019805, 24.819805) rotate(-315.000000) translate(-32.019805, -24.819805) "></path>
    </g>
</svg>