<?xml version="1.0" encoding="UTF-8"?>
<svg width="32px" height="32px" viewBox="0 0 32 32" version="1.1" xmlns="http://www.w3.org/2000/svg" xmlns:xlink="http://www.w3.org/1999/xlink">
    <!-- Generator: Sketch 52.5 (67469) - http://www.bohemiancoding.com/sketch -->
    <title>32/Img/Notice</title>
    <desc>Created with Sketch.</desc>
    <defs>
        <linearGradient x1="50%" y1="0%" x2="50%" y2="94.4629018%" id="linearGradient-1">
            <stop stop-color="#FFBF2F" offset="0%"></stop>
            <stop stop-color="#FFA82D" offset="99.9458092%"></stop>
        </linearGradient>
    </defs>
    <g id="32/Img/Notice" stroke="none" stroke-width="1" fill="none" fill-rule="evenodd">
        <path d="M16,32 C7.163444,32 0,24.836556 0,16 C0,7.163444 7.163444,0 16,0 C24.836556,0 32,7.163444 32,16 C32,24.836556 24.836556,32 16,32 Z M11.277627,14.4104109 L11,15.4054638 C12.5151333,14.9810974 13.4349672,14.9810974 13.7595018,15.4054638 C14.1727173,15.9457905 13.7136878,17.1158771 13.2613231,18.7647744 C12.8313187,20.3321669 12.1689775,22.0018397 12.4537714,23.0124878 C12.8061805,24.2630818 14.4774967,25.7311092 18.9490699,23.8918455 C19.0280298,23.6905044 19.1070463,23.3973851 19.1861196,23.0124878 C17.4914594,23.4078415 16.5758618,23.3433404 16.4393269,22.8189846 C15.6408145,19.7523347 19.4892544,16.274838 17.4581617,14.4104109 C16.1651921,13.2235387 14.1050138,13.2235387 11.277627,14.4104109 Z M16.6509321,11.9279671 C18.0913584,11.9279671 19.2590547,10.9548869 19.2590547,9.75453164 C19.2590547,8.5541764 18.0913584,7.5810962 16.6509321,7.5810962 C15.2105058,7.5810962 14.0428096,8.5541764 14.0428096,9.75453164 C14.0428096,10.9548869 15.2105058,11.9279671 16.6509321,11.9279671 Z" id="Oval-7" fill="url(#linearGradient-1)"></path>
    </g>
</svg>