<?xml version="1.0" encoding="UTF-8"?>
<svg width="160px" height="36px" viewBox="0 0 160 36" version="1.1" xmlns="http://www.w3.org/2000/svg" xmlns:xlink="http://www.w3.org/1999/xlink">
    <!-- Generator: Sketch 52.5 (67469) - http://www.bohemiancoding.com/sketch -->
    <title>Logo_DEEPGLINT</title>
    <desc>Created with Sketch.</desc>
    <g id="0_Login" stroke="none" stroke-width="1" fill="none" fill-rule="evenodd">
        <g id="1_Login_DEEPGLINT" transform="translate(-779.000000, -975.000000)" fill="#B0BCD4">
            <g id="Down" transform="translate(646.000000, 975.000000)">
                <g id="Logo" transform="translate(133.000000, 0.000000)">
                    <path d="M157.652809,34.6095548 C158.181847,34.610807 158.182161,34.6148765 158.181218,35.1201287 C158.180904,35.3439548 158.178389,35.5680939 158.177132,35.79192 C154.878743,35.7909809 151.580354,35.7900417 148.282279,35.7887896 C148.281022,35.6022157 148.278507,35.4156417 148.278193,35.2287548 C148.278193,34.6133113 148.278507,34.610807 148.917878,34.6098678 C150.005187,34.6079896 151.092495,34.6073635 152.179804,34.61112 C152.392613,34.6117461 152.560157,34.625833 152.565501,34.3152939 C152.571473,33.9869113 152.396385,33.9956765 152.165972,33.9969287 C151.103811,34.0022504 150.041336,33.9900417 148.979175,34.0053809 C148.684322,34.0094504 148.559214,33.9505983 148.56613,33.6212765 C148.583104,32.8064243 148.566758,32.8061113 149.40165,32.8061113 C150.338703,32.8061113 151.276071,32.8023548 152.213752,32.8086157 C152.426876,32.8101809 152.567387,32.7957809 152.562672,32.5174852 C152.558271,32.2517113 152.488487,32.134633 152.200864,32.1399548 C151.451159,32.1540417 150.700825,32.1493461 149.951434,32.1427722 C149.164951,32.1358852 148.582161,31.5561287 148.576503,30.7772765 C148.570845,30.0557113 148.572731,29.33352 148.57556,28.6116417 C148.579018,27.7407548 149.136974,27.1481635 150.019646,27.1415896 C152.132024,27.1262504 154.244401,27.1271896 156.356778,27.1409635 C157.269627,27.1469113 157.863418,27.8459374 157.821297,28.6329287 C157.779489,29.4108417 157.85556,30.1965809 157.793635,30.9723026 C157.735796,31.6979374 157.202986,32.1289983 156.480314,32.1408939 C155.746326,32.1527896 155.012024,32.1518504 154.27835,32.14152 C154.014931,32.1374504 153.897367,32.2075722 153.89391,32.4974504 C153.890138,32.7910852 154.031591,32.81112 154.26169,32.8092417 C155.299018,32.8017287 156.33666,32.8133113 157.373988,32.8014157 C157.660354,32.7982852 157.810609,32.8189461 157.828527,33.185207 C157.868448,34.0019374 157.899253,34.0000591 157.103969,33.9997461 C156.166601,33.99912 155.229234,34.0022504 154.291866,33.9969287 C154.062711,33.9956765 153.886994,33.9865983 153.892338,34.3152939 C153.897367,34.6270852 154.065855,34.6117461 154.278035,34.61112 C155.40275,34.6073635 156.527466,34.6070504 157.652809,34.6095548 Z M152.329116,30.9491374 C152.650059,30.9497635 152.540354,30.708407 152.55167,30.5462504 C152.563929,30.377833 152.595992,30.1862504 152.312456,30.1962678 C151.964794,30.2084765 151.616189,30.1990852 151.268212,30.1993983 C150.907662,30.1993983 150.546169,30.211607 150.186562,30.1956417 C149.921886,30.1837461 149.902397,30.3374504 149.923458,30.5262157 C149.942004,30.6983896 149.819411,30.9528939 150.165187,30.9503896 C150.886287,30.9456939 151.607701,30.9478852 152.329116,30.9491374 Z M150.172102,28.3205113 C149.89391,28.3161287 149.920943,28.4886157 149.920629,28.6651722 C149.920314,28.8429809 149.897682,29.0198504 150.174303,29.0088939 C150.522593,28.99512 150.871827,29.0054504 151.221061,29.0054504 C151.58224,29.0054504 151.944047,28.994807 152.305226,29.0085809 C152.58499,29.0192243 152.55387,28.8382852 152.554499,28.6632939 C152.555442,28.4864243 152.581847,28.3155026 152.303026,28.3205113 C151.592927,28.33272 150.881886,28.3320939 150.172102,28.3205113 Z M154.162986,30.1947026 C153.853988,30.1884417 153.901139,30.3878504 153.904597,30.5694157 C153.907426,30.74472 153.839843,30.9629113 154.154499,30.9519548 C154.503733,30.939433 154.854224,30.9491374 155.204086,30.9494504 C155.54169,30.9497635 155.879607,30.9359896 156.215953,30.9544591 C156.473713,30.9685461 156.543497,30.859607 156.527151,30.6257635 C156.512692,30.4147722 156.565815,30.19032 156.225069,30.1959548 C155.537603,30.2072243 154.850138,30.2084765 154.162986,30.1947026 Z M153.901139,28.6557809 C153.899253,28.8567548 153.892967,29.0270504 154.183418,29.0101461 C154.520079,28.9907374 154.85831,29.0057635 155.195599,29.0057635 C155.545462,29.0057635 155.896582,28.9913635 156.245501,29.0104591 C156.537525,29.0261113 156.526523,28.8520591 156.526837,28.6532765 C156.527466,28.4641983 156.530609,28.3142504 156.261847,28.3198852 C155.562122,28.3333461 154.862083,28.3336591 154.162358,28.3198852 C153.88888,28.3142504 153.90334,28.4710852 153.901139,28.6557809 Z M158.185713,25.6437391 C158.166853,25.8785217 158.164967,26.117687 158.186028,26.3521565 C158.211175,26.6273217 158.088896,26.6833565 157.838994,26.6817913 C156.302177,26.672713 154.765674,26.6770957 153.228857,26.6770957 C151.704613,26.6770957 150.180369,26.6702087 148.656126,26.6830435 C148.367246,26.6855478 148.268857,26.6138609 148.271371,26.3108348 C148.279544,25.3378957 148.266971,25.3378957 149.243945,25.3378957 C149.556086,25.3378957 149.868542,25.3363304 150.180998,25.3378957 C150.329682,25.3382087 150.393179,25.2946957 150.317422,25.1375478 C150.177855,24.8489217 150.039544,24.6307304 149.632472,24.6479478 C148.719623,24.6864522 148.736283,24.6589043 148.713965,23.742 C148.704849,23.3876348 148.822098,23.3068696 149.157187,23.3134435 C150.20646,23.3334783 151.256047,23.3212696 152.30532,23.3200174 C152.480409,23.3200174 152.677187,23.3591478 152.581312,23.0514261 C152.511843,22.8276 152.745399,22.8582783 152.849446,22.8454435 C153.139898,22.8097565 153.41589,22.5765391 153.725202,22.7662435 C153.73369,22.7715652 153.740605,22.7884696 153.739662,22.7997391 C153.700055,23.4195652 154.137933,23.3231478 154.520173,23.3218957 C155.51978,23.3184522 156.519701,23.3325391 157.518365,23.3137565 C157.825792,23.3078087 157.915379,23.4126783 157.889289,23.6988 C157.869171,23.9207478 157.872943,24.1470783 157.888346,24.3699652 C157.905006,24.606 157.801587,24.6726783 157.580291,24.6636 C157.25589,24.6501391 156.930546,24.6582783 156.605831,24.6617217 C156.497383,24.6626609 156.36976,24.6301043 156.303749,24.7543826 C156.211961,24.9268696 156.035929,25.1269043 156.070821,25.2737217 C156.106028,25.4227304 156.378248,25.3297565 156.545163,25.3341391 C156.981784,25.3450957 157.419976,25.3485391 157.856597,25.3344522 C158.091096,25.3266261 158.206145,25.3861043 158.185713,25.6437391 Z M153.935497,25.3378957 C154.483709,25.3378957 154.592786,25.2505565 154.744927,24.6607826 C153.779583,24.6607826 152.822413,24.6598435 151.865242,24.6623478 C151.786971,24.6626609 151.681037,24.634487 151.676322,24.7741043 C151.669407,24.9866609 151.993493,25.3347652 152.21479,25.3363304 C152.788464,25.340087 153.362138,25.3378957 153.935497,25.3378957 Z M146.205045,23.1859096 C146.87365,23.218153 147.564259,23.851753 147.547285,24.5777009 C147.510507,26.16984 147.535969,27.7632313 147.535969,29.3559965 C147.535969,30.9240313 147.538798,32.491753 147.534711,34.0597878 C147.532511,34.9419443 146.96921,35.4932139 146.079623,35.4954052 C145.542098,35.4966574 145.004888,35.5004139 144.467678,35.4947791 C143.670821,35.486327 143.033336,34.8702574 143.031764,34.0798226 C143.025163,30.9190226 143.025792,27.7582226 143.031136,24.5977357 C143.032393,23.8238922 143.632472,23.2334922 144.481194,23.1871617 C145.054554,23.1561704 145.631686,23.1583617 146.205045,23.1859096 Z M145.978719,34.1596487 C146.199701,34.1655965 146.253768,34.0688661 146.250625,33.8691443 C146.242452,33.2727965 146.243081,32.6758226 146.249682,32.0791617 C146.252511,31.8606574 146.173611,31.7611096 145.944141,31.7661183 C145.507521,31.7758226 145.069957,31.7751965 144.63365,31.7658052 C144.437187,31.7614226 144.367403,31.8378052 144.374004,32.0287617 C144.383749,32.3267791 144.376519,32.6254226 144.376204,32.923753 C144.376204,33.247127 144.38312,33.5705009 144.374004,33.8932487 C144.368346,34.0817009 144.431214,34.1630922 144.630507,34.1590226 C145.080016,34.1490052 145.529525,34.147753 145.978719,34.1596487 Z M144.458876,28.2396835 C144.209917,28.4772835 144.420527,28.9484139 144.376833,29.2479965 C144.376833,29.6136313 144.386263,29.9122748 144.374004,30.2102922 C144.365202,30.4187791 144.439701,30.4989183 144.653454,30.4929704 C145.077815,30.4810748 145.502806,30.4807617 145.927167,30.4926574 C146.175497,30.4995443 146.256912,30.3934226 146.25031,30.1577009 C146.239308,29.7476139 146.247481,29.3369009 146.247796,28.9261878 C146.247796,28.1733183 146.247796,28.1667443 145.509721,28.1764487 C145.150114,28.1808313 144.687088,28.0224313 144.458876,28.2396835 Z M144.638365,24.5883443 C144.448817,24.5845878 144.365202,24.6465704 144.37369,24.84504 C144.38532,25.1180139 144.376519,25.391927 144.376519,25.665527 C144.376519,25.9516487 144.381862,26.2374574 144.374633,26.5235791 C144.370546,26.6973183 144.438444,26.7680661 144.616047,26.7652487 C145.07813,26.7583617 145.539898,26.7586748 146.00198,26.7649357 C146.175497,26.76744 146.251253,26.7051443 146.249367,26.5270226 C146.244338,25.9676139 146.242138,25.4078922 146.25031,24.8481704 C146.253454,24.6528313 146.179269,24.58584 145.986892,24.5892835 C145.537697,24.5980487 145.087874,24.5974226 144.638365,24.5883443 Z M109.099725,31.0191339 C108.84668,31.0119339 108.778782,31.09176 108.904833,31.3230991 C109.534774,32.4807339 110.148055,33.648073 110.796857,34.7953774 C110.967859,35.0977774 110.940825,35.2157948 110.623026,35.3588557 C109.784047,35.736073 109.787505,35.7517252 109.342711,34.9381252 C108.67442,33.7160035 108.01053,32.4916904 107.34444,31.2686296 C107.230648,31.0595165 106.614538,30.9070643 106.424361,31.0463687 C106.30334,31.1355861 106.35332,31.2761426 106.353006,31.3947861 C106.349862,32.72616 106.340118,34.0572209 106.358978,35.3882817 C106.364008,35.7176035 106.275363,35.8343687 105.942161,35.8027513 C105.632534,35.7733252 105.318193,35.7911687 105.006051,35.7883513 C105.005422,34.3445948 105.007623,32.9005252 104.998507,31.4567687 C104.997564,31.30776 105.108841,31.0397948 104.845737,31.0404209 C104.563772,31.041047 104.207623,30.846647 104.0011,31.2232383 C103.38499,32.3467513 102.771709,33.4715165 102.154028,34.5944035 C101.933045,34.9966643 101.703576,35.3942296 101.477878,35.7939861 C101.187426,35.649673 100.904204,35.4881426 100.604637,35.3660557 C100.353477,35.2640035 100.327073,35.1466122 100.45501,34.9174643 C101.103811,33.756073 101.739725,32.5877948 102.380039,31.4217078 C102.438193,31.3162122 102.562672,31.2129078 102.494145,31.0892557 C102.423104,30.9599687 102.267505,31.0257078 102.149627,31.0241426 C101.687544,31.0175687 101.224833,31.0119339 100.763065,31.0257078 C100.52888,31.0322817 100.435206,30.9709252 100.429548,30.7154817 C100.40723,29.6793078 100.398114,29.6793078 101.434185,29.6793078 C102.483458,29.6793078 103.533045,29.6633426 104.582004,29.6883861 C104.940668,29.6968383 105.056346,29.5760035 105.004479,29.2454296 C105.002593,29.2332209 105.004165,29.2203861 105.004165,29.2081774 C105.004794,28.1738817 105.004479,28.1782643 106.069155,28.255273 C106.276935,28.2702991 106.360236,28.34856 106.353006,28.5523513 C106.344204,28.7883861 106.374695,29.0281774 106.345147,29.2607687 C106.299253,29.6248383 106.462083,29.6905774 106.789941,29.6861948 C108.039136,29.6696035 109.288644,29.6896383 110.537525,29.673047 C110.882043,29.6686643 111.025697,29.7469252 111.015639,30.1253948 C110.992063,31.0213252 111.010609,31.0216383 110.111591,31.0213252 C109.774303,31.0213252 109.436385,31.0288383 109.099725,31.0191339 Z M103.792472,25.5237496 C104.017226,25.3531409 104.13699,25.3572104 104.285988,25.6013843 C104.407953,25.800793 104.58367,25.9673322 104.73424,26.1495235 C104.772904,26.19648 104.807481,26.24688 104.836401,26.2856974 C104.829171,26.4203061 104.734868,26.4741496 104.658798,26.5301843 C103.765752,27.1866365 102.867992,27.8358887 101.977147,28.4948452 C101.812432,28.6166191 101.701784,28.6410365 101.60088,28.4316104 C101.5531,28.3323757 101.477658,28.2453496 101.410075,28.1558191 C100.963081,27.564793 100.968424,27.5726191 101.590193,27.1309148 C102.331096,26.6046887 103.068542,26.0731409 103.792472,25.5237496 Z M108.324935,25.913207 C109.015859,26.4018678 109.691694,26.9115026 110.374758,27.410807 C110.443285,27.461207 110.534758,27.490007 110.532872,27.5832939 C110.527214,27.655607 109.833462,28.4958157 109.778452,28.5171026 C109.689807,28.5515374 109.641084,28.4879896 109.582303,28.4451026 C108.717548,27.81432 107.857823,27.1766504 106.983639,26.5583896 C106.798177,26.4269113 106.805407,26.3304939 106.918884,26.1702157 C107.503246,25.3437809 107.506703,25.3347026 108.324935,25.913207 Z M109.424817,22.87008 C110.284857,22.8716452 110.854444,23.4354365 110.858845,24.2853496 C110.860102,24.6334539 110.848786,24.9821843 110.862303,25.3296626 C110.87079,25.5506713 110.801949,25.648967 110.566507,25.635193 C110.280456,25.6179757 109.958884,25.7062539 109.714012,25.6038887 C109.393069,25.4699061 109.618138,25.0980104 109.554955,24.8366191 C109.431733,24.3260452 109.326428,24.2155409 108.799906,24.2152278 C106.714876,24.2142887 104.630161,24.2139757 102.545132,24.2152278 C101.973972,24.2155409 101.785367,24.4049322 101.780024,24.9715409 C101.773422,25.6448974 101.773422,25.64928 101.113305,25.6448974 C100.316448,25.6395757 100.447214,25.7410017 100.435898,24.9803061 C100.433069,24.7690017 100.431497,24.5573843 100.436212,24.34608 C100.456644,23.4758191 101.055466,22.8782191 101.93468,22.8725843 C103.195505,22.8644452 104.45633,22.870393 105.717155,22.87008 C106.953147,22.869767 108.188825,22.8678887 109.424817,22.87008 Z M98.4535639,31.3372174 C99.1935246,31.7109913 99.198554,31.7134957 98.8093988,32.4325565 C98.2479843,33.4702957 97.6790255,34.5045913 97.1113242,35.538887 C97.0600864,35.6321739 97.0380825,35.7570783 96.8765108,35.7808696 C96.6822475,35.6825739 96.4681807,35.5830261 96.2619725,35.4684522 C95.7637407,35.1920348 95.7615403,35.1870261 96.0369037,34.6896 C96.6498703,33.581113 97.2728959,32.4779478 97.8783183,31.3653913 C97.99211,31.1559652 98.1052731,31.1315478 98.2875914,31.2520696 C98.3391434,31.2858783 98.3979253,31.3090435 98.4535639,31.3372174 Z M96.0591591,28.2044974 C95.808943,28.0335757 95.8520079,27.8952104 96.0028919,27.6961148 C96.5976267,26.9119409 96.5929116,26.9116278 97.3781375,27.5020278 C97.8150727,27.8307235 98.2573517,28.1519061 98.699002,28.4740278 C98.7889037,28.5394539 98.8844637,28.5954887 98.9256424,28.7288452 C98.7785305,28.9129148 98.6342475,29.0979235 98.4849352,29.2788626 C98.1385305,29.6970887 98.1331866,29.7024104 97.6883929,29.3849843 C97.1420668,28.9955583 96.6130295,28.5823409 96.0591591,28.2044974 Z M99.0401886,24.6761843 C99.1068291,24.7250191 99.1822711,24.7772974 99.1929587,24.8577496 C99.1348055,25.0643583 98.968833,25.1723583 98.8603851,25.32168 C98.4489116,25.8870365 98.4429391,25.8898539 97.8808959,25.4860278 C97.3373988,25.0956626 96.8064754,24.68808 96.260778,24.3002191 C96.0746876,24.1681148 96.0467112,24.06888 96.211112,23.8935757 C96.396888,23.6960452 96.556888,23.4728452 96.717831,23.2540278 C96.8124479,23.12568 96.9054931,23.1150365 97.0293438,23.2058191 C97.6992063,23.6963583 98.3712692,24.184393 99.0401886,24.6761843 Z M62.5706876,34.4221043 C62.8451081,34.5379304 62.9557564,34.6512522 62.7668369,34.9295478 C62.5930059,35.1853043 62.5634578,35.6101043 62.3063261,35.7102783 C62.0476228,35.8110783 61.7414538,35.5265217 61.4585462,35.4050609 C59.6724558,34.6390435 57.8860511,33.8742783 56.1015324,33.1045043 C55.9544204,33.0409565 55.8277407,33.0281217 55.6743418,33.0941739 C53.6619253,33.9634957 51.6451081,34.8237391 49.6342633,35.6971304 C49.4305697,35.7854087 49.3227505,35.7810261 49.2306483,35.5653391 C49.0992534,35.2569913 48.7883694,34.9286087 48.8405501,34.664713 C48.8955599,34.3861043 49.3758743,34.3463478 49.6757564,34.2170609 C51.2660118,33.5318087 52.8594106,32.8540696 54.4534381,32.1772696 C55.2088016,31.8564 55.2100589,31.8601565 55.2100589,31.0662783 L55.2100589,30.7303826 L55.2100589,30.5438087 C55.2103733,29.5107652 55.2927308,29.4475304 56.3511198,29.5912174 C56.5510413,29.6181391 56.5557564,29.7283304 56.5557564,29.8723304 C56.5551277,30.4320522 56.5651866,30.992087 56.5510413,31.5518087 C56.5450688,31.7750087 56.6324558,31.8867652 56.8314342,31.9716 C58.7454617,32.7861391 60.6547741,33.6119478 62.5706876,34.4221043 Z M49.076558,30.925127 C48.843002,30.7432487 48.7732181,30.5954922 49.042609,30.3829357 C49.2271277,30.2373704 49.3789548,30.0511096 49.5486994,29.8861357 C49.5999371,29.8360487 49.6606051,29.7959791 49.7247308,29.7455791 C49.7879136,29.7931617 49.8375796,29.8282226 49.8847308,29.8664139 C50.4738075,30.3441183 51.0543969,30.8324661 51.6557328,31.2938922 C51.834279,31.4310052 51.7692102,31.493927 51.6566758,31.601927 C51.4592692,31.7916313 51.257776,31.9791443 51.0770295,32.1841878 C50.9393477,32.3403965 50.8299568,32.3425878 50.6727859,32.2126748 C50.1459489,31.7769183 49.6159686,31.3449183 49.076558,30.925127 Z M60.7500196,32.0991965 C60.626169,31.9602052 60.4878585,31.8340487 60.3564637,31.7016313 C59.9701375,31.3122052 59.9701375,31.3118922 60.3882122,30.9853878 C60.8279764,30.6419791 61.2702554,30.3010748 61.7065619,29.9529704 C61.8115521,29.8690748 61.8929666,29.79144 62.019332,29.9229183 C62.2516306,30.1645878 62.4936739,30.3974922 62.7303733,30.6360313 C62.7643222,30.670153 62.7900982,30.712727 62.8557957,30.79944 C62.8011002,30.8323096 62.7432613,30.8595443 62.6939096,30.8977357 C62.164558,31.3075096 61.6289194,31.7103965 61.1121415,32.1355096 C60.9496267,32.2688661 60.8653831,32.2294226 60.7500196,32.0991965 Z M62.3079293,23.0479826 C62.704943,23.2727478 62.9378703,23.598 62.9362986,24.0725739 C62.9322122,25.2173739 62.9403851,26.3621739 62.9331552,27.5069739 C62.9287544,28.2116348 62.3519371,28.7707304 61.6449823,28.7832522 C57.473666,28.8583826 53.3020354,28.8336522 49.1304047,28.8483652 C48.7707976,28.8496174 48.6541768,28.746 48.6620354,28.3844348 C48.6815246,27.4975826 48.6658075,27.4972696 49.5384204,27.4972696 C53.412055,27.4975826 57.2853752,27.4988348 61.1590098,27.4950783 C61.3196385,27.4947652 61.5613674,27.5880522 61.6163772,27.3645391 C61.6836464,27.0921913 61.6965344,26.7916696 61.6000314,26.521513 C61.5557092,26.3972348 61.3746483,26.456087 61.2548841,26.4557739 C59.4181847,26.4526435 57.5811709,26.4529565 55.7444715,26.4526435 C53.9326051,26.4523304 52.121053,26.4457565 50.3091866,26.4582783 C49.9901297,26.4604696 49.8687937,26.3806435 49.8731945,26.0419304 C49.8863969,25.1112522 49.8719371,25.1109391 50.8159057,25.1109391 C54.2768094,25.1115652 57.7380275,25.1062435 61.1992456,25.1209565 C61.5805422,25.1225217 61.6540982,24.9857217 61.6553556,24.6451304 C61.6569273,24.296087 61.5987741,24.1395652 61.1888723,24.1411304 C57.165611,24.1558435 53.1420354,24.1442609 49.1187741,24.1567826 C48.7560236,24.1577217 48.6538625,24.0600522 48.6629784,23.7013043 C48.6859253,22.8085043 48.6683222,22.8078783 49.570169,22.8078783 L55.2302083,22.8078783 C57.2671434,22.8078783 59.3037642,22.8097565 61.3403851,22.806313 C61.6861611,22.805687 62.0093045,22.8789391 62.3079293,23.0479826 Z M15.2208409,29.8996278 C15.9469705,29.9033843 16.5530216,30.5388626 16.566224,31.3227235 C16.5835128,32.34168 16.5853988,33.3615757 16.5646523,34.3802191 C16.5486208,35.1694017 16.0997407,35.6514887 15.3028841,35.80488 C13.527167,35.8042539 11.7511356,35.8036278 9.97510413,35.8030017 C9.21974067,35.7147235 8.70516306,35.1587583 8.69981925,34.4021322 C8.69258939,33.3703409 8.6941611,32.3388626 8.7001336,31.3073843 C8.70453438,30.5213322 9.30178389,29.9052626 10.091725,29.8999409 C11.8014303,29.8886713 13.5111356,29.8911757 15.2208409,29.8996278 Z M15.2202122,33.7932626 C15.2337289,33.1593496 15.2343576,32.5248104 15.2202122,31.8908974 C15.2098389,31.4379235 14.9935717,31.2407061 14.5362043,31.2394539 C13.2499175,31.2356974 11.963945,31.2353843 10.6776582,31.2391409 C10.2243772,31.2407061 10.0489745,31.4194539 10.0455167,31.8780626 C10.0401729,32.5244974 10.0408016,33.1712452 10.044888,33.817993 C10.0477171,34.27128 10.2246916,34.4490887 10.6795442,34.4525322 C11.3289745,34.4572278 11.9784047,34.4537843 12.6275206,34.4534713 C13.2643772,34.4534713 13.9012338,34.4566017 14.5380904,34.4525322 C14.9825697,34.4497148 15.2104676,34.2399757 15.2202122,33.7932626 Z M16.5699646,28.5407687 C16.8569587,28.6825774 16.9135403,28.8087339 16.7120472,29.0648035 C16.5294145,29.2970817 16.4750334,29.6896383 16.214444,29.7797948 C15.9393949,29.874647 15.6872927,29.55816 15.4235599,29.42856 C14.5842672,29.0159687 13.7547191,28.5833426 12.927057,28.1482122 C12.7001022,28.0289426 12.5155835,28.0067165 12.2666248,28.1347513 C11.3129116,28.6246643 10.3387662,29.0745078 9.38065226,29.5559687 C9.13766601,29.6780557 9.00061297,29.680873 8.83369745,29.42856 C8.28297053,28.5968035 8.27259725,28.6068209 9.17853045,28.1651165 C9.79244008,27.8655339 10.4016346,27.5571861 11.0809273,27.2194122 C10.7235206,27.0200035 10.430554,26.8431339 10.1250138,26.6913078 C9.94866798,26.6036557 9.92666405,26.5304035 10.0316542,26.3582296 C10.587725,25.4494643 10.614444,25.3956209 11.5056031,25.93656 C12.2795128,26.4058122 12.9641493,26.4997252 13.7220275,25.950647 C14.0310255,25.7271339 14.4063497,25.5934643 14.7546405,25.425047 C15.0416346,25.2860557 15.1557407,25.0381252 15.1032456,24.7535687 C15.0454067,24.438647 14.8237957,24.2836904 14.48022,24.2865078 C13.3309862,24.2955861 12.1817525,24.2924557 11.0325187,24.2843165 C10.8473713,24.2827513 10.7439528,24.3409774 10.6483929,24.50376 C10.3582554,24.9961774 10.0329116,25.468247 9.74654617,25.9628557 C9.62363851,26.1750991 9.50921807,26.1707165 9.33161493,26.0567687 C9.1112613,25.9155861 8.89059332,25.7722122 8.65672299,25.6563861 C8.46371709,25.5602817 8.48006287,25.4529078 8.57405108,25.3020209 C9.02796071,24.5741948 9.4831277,23.8469948 9.92729273,23.1132209 C10.0131081,22.9710991 10.1193556,22.9438643 10.2664676,22.9441774 C11.9277642,22.9479339 13.5893752,22.94136 15.2503576,22.9526296 C15.8648959,22.9570122 16.4621454,23.4938817 16.5479607,24.1418817 C16.5976267,24.5197252 16.58411,24.9135339 16.5429312,25.2941948 C16.4835206,25.8423339 16.1547191,26.2214296 15.6643458,26.4649774 C15.1623418,26.71416 14.6603379,26.9627165 14.0835206,27.2485252 C14.9577053,27.7055687 15.7561336,28.1388209 16.5699646,28.5407687 Z M7.67063261,24.294647 C7.87904126,24.2896383 7.9469391,24.360073 7.95605501,24.5720035 C8.00163458,25.6391687 8.00760707,25.6388557 6.92847151,25.6376035 C6.64116306,25.6372904 6.35291159,25.6504383 6.06623183,25.6335339 C5.82827505,25.619447 5.76980747,25.7193078 5.7723222,25.9390643 C5.7820668,26.7229252 5.78678193,27.5074122 5.76949312,28.291273 C5.76414931,28.5476557 5.86725344,28.7126296 6.0517721,28.8610122 C6.55597642,29.2664035 7.05326523,29.680873 7.56124165,30.0812557 C7.77153635,30.2474817 7.84729273,30.3676904 7.61970923,30.6084209 C6.97782318,31.285847 6.99542633,31.2899165 6.26552456,30.7511687 C6.12501375,30.6475513 5.99801965,30.3855339 5.82670334,30.4832035 C5.68682122,30.5633426 5.77955206,30.8291165 5.77892338,31.0109948 C5.77326523,32.604073 5.77452259,34.1971513 5.77357957,35.7902296 C5.32627112,35.7886643 4.87927701,35.7867861 4.43228291,35.7852209 L4.43228291,28.7486296 C4.11636935,29.2357252 3.96359921,29.6918296 3.76556385,30.1235165 C3.29876621,31.1402817 2.84297053,32.1623687 2.4025776,33.1907165 C2.28061297,33.4758991 2.14733202,33.5115861 1.9015167,33.3497426 C1.75691945,33.2542643 1.59754813,33.1697426 1.43251866,33.1184035 C1.06128094,33.0022643 1.1015167,32.8066122 1.23574067,32.5092209 C2.22277407,30.3226122 3.18968959,28.1272383 4.17515128,25.9396904 C4.29837328,25.6660904 4.21853045,25.6310296 3.9642279,25.633847 C3.13939489,25.6438643 2.31424754,25.6288383 1.48972888,25.6441774 C1.22253831,25.6491861 1.09302947,25.591273 1.12289194,25.2963861 C1.14678193,25.0622296 1.14080943,24.8227513 1.12383497,24.5876557 C1.10686051,24.3500557 1.21027898,24.2921426 1.43063261,24.294647 C2.3177053,24.3034122 3.20540668,24.2896383 4.09247937,24.3030991 C4.35275442,24.3071687 4.45082908,24.229847 4.43322593,23.9656383 C4.4134224,23.668247 4.43542633,23.3683513 4.42662475,23.0697078 C4.4209666,22.883447 4.48069155,22.78296 4.68187033,22.8054991 C4.70670334,22.8083165 4.73185069,22.8058122 4.75668369,22.8054991 C5.7760943,22.7820209 5.7760943,22.7820209 5.77577996,23.7997252 C5.77577996,24.2977774 5.77577996,24.2980904 6.28344204,24.2980904 C6.7458389,24.2980904 7.2085501,24.3056035 7.67063261,24.294647 Z M153.438523,5.92153043 C153.663591,5.91777391 153.748778,6.00793043 153.748464,6.23081739 C153.744692,8.532 153.744063,10.8331826 153.749407,13.1343652 C153.749721,13.3632 153.639073,13.399513 153.447639,13.3973217 C152.910743,13.3904348 152.373218,13.3813565 151.836637,13.4007652 C151.559073,13.4104696 151.504692,13.2962087 151.506892,13.0498435 C151.516951,11.9304 151.511293,10.8109565 151.510664,9.69151304 C151.51035,8.58427826 151.520409,7.47735652 151.504063,6.37043478 C151.499033,6.04048696 151.576676,5.89523478 151.940055,5.91652174 C152.437972,5.94626087 152.939033,5.92998261 153.438523,5.92153043 Z M159.527041,0.316424348 C159.860558,0.31485913 160.003898,0.392806957 159.982523,0.752493913 C159.953917,1.23614609 159.966177,1.7229287 159.980008,2.20783304 C159.987552,2.45513739 159.875332,2.54685913 159.649006,2.54779826 C159.573878,2.54842435 159.499065,2.54873739 159.424251,2.54873739 C154.875411,2.54936348 150.32657,2.54998957 145.778043,2.55030261 C145.282955,2.55030261 145.28264,2.54905043 145.281697,2.05819826 C145.281069,1.64748522 145.281383,1.23677217 145.281697,0.826372174 C145.282326,0.326441739 145.28264,0.325815652 145.768299,0.325815652 C148.067709,0.325502609 150.36712,0.325502609 152.66653,0.325502609 L152.66653,0.322685217 C154.953367,0.322685217 157.240204,0.32832 159.527041,0.316424348 Z M140.255183,1.90089391 C140.25644,5.5857287 140.250468,9.27025043 140.265242,12.9547722 C140.266813,13.32792 140.153022,13.42152 139.80033,13.3986678 C139.339819,13.3689287 138.874908,13.3789461 138.413454,13.3977287 C138.149721,13.4083722 138.072079,13.3194678 138.074279,13.0587026 C138.085595,11.7642678 138.078994,10.469833 138.078994,9.17508522 C138.07868,7.22075478 138.078994,5.26642435 138.07868,3.31209391 C138.07868,2.6813113 137.895733,2.4941113 137.250389,2.49192 C135.913179,2.48753739 134.575654,2.49004174 133.23813,2.49004174 C131.600723,2.49035478 129.963316,2.49004174 128.32591,2.49160696 C127.649132,2.49223304 127.435379,2.70823304 127.435379,3.39004174 C127.435379,6.58934609 127.43035,9.78833739 127.444181,12.9873287 C127.445752,13.3257287 127.345792,13.4165113 127.020448,13.3983548 C126.547363,13.3720591 126.070821,13.3795722 125.596165,13.3961635 C125.339348,13.4052417 125.241587,13.3285461 125.251961,13.061207 C125.270821,12.5640939 125.257305,12.0654157 125.257619,11.5676765 C125.258248,8.39341565 125.267992,5.21915478 125.255418,2.04489391 C125.251018,0.890389565 125.869957,0.319085217 126.973611,0.321589565 C128.923473,0.325972174 130.873336,0.322841739 132.823198,0.322841739 L132.823198,0.320337391 C134.77369,0.320337391 136.723552,0.319398261 138.673415,0.320650435 C139.665163,0.321276522 140.254868,0.909798261 140.255183,1.90089391 Z M120.295418,6.88482783 C120.29479,8.92493217 120.288189,10.9653496 120.30202,13.0054539 C120.30422,13.32288 120.20646,13.4127235 119.899662,13.3976974 C119.425949,13.3745322 118.950035,13.3767235 118.476008,13.3973843 C118.196558,13.40928 118.117658,13.3197496 118.113572,13.0402017 C118.072707,10.3051409 118.051332,7.57008 118.061705,4.83501913 C118.066735,3.49143652 118.061705,2.14785391 118.062963,0.804271304 C118.063277,0.336897391 118.078994,0.323749565 118.548306,0.323123478 C118.99813,0.322497391 119.448896,0.339088696 119.897147,0.317175652 C120.214947,0.301210435 120.302334,0.422984348 120.301077,0.726636522 C120.290703,2.77926261 120.295733,4.8318887 120.295418,6.88482783 Z M112.69501,11.2163791 C112.994578,11.2035443 113.122829,11.2752313 113.103969,11.6023617 C113.076306,12.0738052 113.077878,12.5486922 113.103026,13.0201357 C113.119371,13.3228487 113.013752,13.396727 112.722043,13.3951617 C110.610609,13.3842052 108.498861,13.3892139 106.387426,13.3892139 L106.387426,13.3914052 C104.338232,13.3914052 102.289037,13.3926574 100.240157,13.3907791 C99.3191356,13.38984 98.7099411,12.8010052 98.7086837,11.88504 C98.7030255,8.13947478 98.7083694,4.39422261 98.7001965,0.648970435 C98.6995678,0.37850087 98.7929273,0.309005217 99.0466012,0.317770435 C99.520943,0.333735652 99.9971709,0.343753043 100.470255,0.31557913 C100.803143,0.295544348 100.890845,0.40104 100.889587,0.730674783 C100.877328,3.94093565 100.882043,7.15119652 100.882986,10.3617704 C100.882986,10.50984 100.868841,10.6582226 100.927308,10.8034748 C101.057446,11.1274748 101.300432,11.2279617 101.637407,11.2273357 C104.811316,11.2207617 107.984912,11.222953 111.158507,11.22264 C111.67057,11.22264 112.183576,11.2382922 112.69501,11.2163791 Z M93.2862554,0.313982609 C93.590224,0.312417391 93.7081022,0.385043478 93.6901847,0.705286957 C93.66378,1.17673043 93.6593792,1.65224348 93.6898703,2.12337391 C93.7121886,2.4746087 93.540558,2.49370435 93.2648802,2.49307826 C89.4654303,2.48681739 85.6659804,2.4890087 81.8668448,2.4890087 C81.0420118,2.4890087 80.8618939,2.66963478 80.8618939,3.5013913 C80.8612652,5.61725217 80.864723,7.73311304 80.8574931,9.84866087 C80.8565501,10.1203826 80.9109312,10.3842783 80.8955285,10.6606957 C80.8754106,11.0206957 81.1592613,11.2226087 81.5836228,11.2232348 C83.2584361,11.2248 84.9329352,11.2241739 86.6077485,11.2241739 C87.9949391,11.2238609 89.3821297,11.224487 90.7693202,11.2232348 C91.3216189,11.2226087 91.5064519,11.037913 91.5077092,10.4872696 C91.5089666,9.80264348 91.5155678,9.11801739 91.5023654,8.4333913 C91.4976503,8.18577391 91.5554892,8.07370435 91.8324244,8.08466087 C92.3441729,8.10469565 92.8571788,8.09718261 93.369556,8.08747826 C93.5804794,8.0834087 93.6898703,8.12754783 93.6879843,8.37203478 C93.6772967,9.61669565 93.6945855,10.8613565 93.6732102,12.1057043 C93.6603222,12.8582609 93.0564715,13.3885565 92.2526994,13.3901217 C89.9029941,13.3941913 87.5536031,13.392 85.2038978,13.3926261 C83.5542318,13.3929391 81.9039371,13.3675826 80.2552141,13.4048348 C79.350224,13.4251826 78.6995363,12.8360348 78.6932495,11.8809391 C78.6721886,8.55766957 78.6759607,5.23471304 78.6888487,1.91175652 C78.6929352,0.874956522 79.2989862,0.322434783 80.3510884,0.321808696 C82.4879843,0.321182609 84.6251945,0.321808696 86.7624047,0.321808696 L86.7624047,0.320243478 C88.9370216,0.320243478 91.1116385,0.325878261 93.2862554,0.313982609 Z M73.7261454,1.97762087 C73.725831,3.4711513 73.711057,4.96499478 73.7305462,6.45852522 C73.7418625,7.32565565 73.2087387,8.11389913 72.0915678,8.10200348 C68.504613,8.0647513 64.9173438,8.0935513 61.3300747,8.08071652 C60.9814695,8.07946435 60.8912534,8.17776 60.8953399,8.5183513 C60.9132574,10.0240904 60.8969116,11.5304557 60.9091709,13.0365078 C60.911057,13.31136 60.839387,13.4102817 60.5530216,13.39776 C60.0541611,13.375847 59.5531002,13.3821078 59.053611,13.3958817 C58.8206837,13.4021426 58.721666,13.347047 58.722609,13.0890991 C58.7310963,10.798873 58.7342397,8.50833391 58.7204086,6.21810783 C58.7185226,5.86843826 58.9219018,5.9191513 59.1309391,5.91946435 C62.9803694,5.91946435 66.8304283,5.9191513 70.6798585,5.91977739 C71.3720393,5.91977739 71.5439843,5.75167304 71.545556,5.06422957 C71.5468134,4.49167304 71.5486994,3.91911652 71.546499,3.34656 C71.5442986,2.71640348 71.3211159,2.49132522 70.6883458,2.49101217 C66.8763222,2.48976 63.0639843,2.4919513 59.2519607,2.49101217 C58.6691709,2.49101217 58.7295246,2.55111652 58.7266955,1.97511652 C58.7244951,1.55219478 58.7471277,1.12739478 58.71978,0.706038261 C58.6984047,0.381412174 58.8260275,0.317238261 59.1259096,0.318803478 C61.3008409,0.330386087 63.4754578,0.325064348 65.650389,0.325064348 L65.650389,0.321933913 C67.7872849,0.321933913 69.9248094,0.321933913 72.0620196,0.322246957 C73.1534145,0.322246957 73.7264597,0.892612174 73.7261454,1.97762087 Z M53.3260196,13.3957565 C51.2139568,13.3854261 49.1015796,13.3901217 46.9892024,13.3901217 L46.9892024,13.3926261 C44.9393792,13.3926261 42.889556,13.3938783 40.8397328,13.392 C39.9337996,13.3910609 39.3730138,12.8329043 39.3711277,11.9272696 C39.3679843,10.4086957 39.3679843,8.89012174 39.3726994,7.37154783 C39.3755285,6.5037913 39.9551749,5.9234087 40.835332,5.92215652 C45.0097917,5.91777391 49.1845658,5.92246957 53.3590255,5.9133913 C53.645391,5.91276522 53.7255481,6.00198261 53.7136031,6.27652174 C53.6931709,6.74890435 53.6906562,7.22316522 53.7136031,7.69523478 C53.7286916,8.00295652 53.6318743,8.09812174 53.316275,8.09530435 C51.6292024,8.0805913 49.941501,8.08841739 48.2541139,8.08841739 C46.3045658,8.08873043 44.354389,8.08841739 42.4048409,8.08904348 C41.7161179,8.08935652 41.5510884,8.25714783 41.5501454,8.94991304 C41.549831,9.49773913 41.5460589,10.0455652 41.5501454,10.5930783 C41.5529745,10.9922087 41.7660982,11.2075826 42.1709705,11.2216696 C42.4079843,11.2301217 42.6456267,11.2232348 42.8832692,11.2232348 C46.3454303,11.2232348 49.8075914,11.2273043 53.2697525,11.2160348 C53.6042122,11.2147826 53.7365501,11.2886609 53.7120314,11.6445913 C53.6799686,12.102887 53.6843694,12.5661913 53.7110884,13.025113 C53.7286916,13.3337739 53.6117564,13.3973217 53.3260196,13.3957565 Z M39.6510806,2.49320348 C39.4404715,2.49758609 39.3637721,2.42120348 39.3678585,2.21177739 C39.3772888,1.70214261 39.3898625,1.19125565 39.3640864,0.68256 C39.348055,0.369203478 39.4747348,0.315046957 39.754499,0.31629913 C42.0146169,0.325690435 44.2744204,0.32162087 46.5345383,0.321307826 C48.7946562,0.320994783 51.0547741,0.326942609 53.3148919,0.314107826 C53.6282908,0.312229565 53.7298232,0.40176 53.7128487,0.711673043 C53.6889587,1.1455513 53.7075049,1.58162087 53.7071906,2.01706435 C53.7071906,2.48913391 53.7065619,2.48976 53.2114735,2.48976 C49.1784676,2.49007304 45.1451473,2.49007304 41.1118271,2.49007304 C40.6249116,2.49007304 40.1379961,2.48287304 39.6510806,2.49320348 Z M22.7288016,8.10137739 C22.3893124,8.15866435 22.1959921,8.35118609 22.1963065,8.70993391 C22.1972495,9.35699478 22.1953635,10.0043687 22.1947348,10.6514296 C22.1944204,11.0054817 22.4154028,11.15856 22.7272299,11.2155339 C22.8359921,11.2355687 22.9513556,11.2211687 23.06389,11.2211687 C26.6756778,11.2208557 30.2871513,11.2255513 33.8989391,11.2120904 C34.2591749,11.2105252 34.3814538,11.30256 34.3550491,11.6656904 C34.3236149,12.0992557 34.3217289,12.5384557 34.3559921,12.9713948 C34.3842829,13.3348383 34.2384283,13.3993252 33.9105697,13.397447 C31.8236542,13.3846122 29.7367387,13.390873 27.6495088,13.390873 L27.6495088,13.3927513 C25.662554,13.3927513 23.6746562,13.3586296 21.6886444,13.4062122 C20.5972495,13.4321948 19.9487623,12.8818643 19.9748527,11.7367513 C20.0094303,10.2075339 19.9918271,8.67831652 20.0282908,7.14972522 C20.0443222,6.48043826 20.6745776,5.92729043 21.3931631,5.92165565 C22.3930845,5.91351652 23.3930059,5.91946435 24.392613,5.91946435 C27.5794106,5.91946435 30.7662083,5.92322087 33.9530059,5.91320348 C34.2544597,5.91226435 34.377053,5.97737739 34.3575639,6.30106435 C34.3302161,6.75998609 34.3277014,7.22297739 34.3575639,7.68158609 C34.3792534,8.01842087 34.26389,8.09605565 33.9376031,8.09511652 C30.3261297,8.08416 26.7143418,8.08822957 23.102554,8.08885565 C22.9777603,8.08885565 22.8507662,8.08102957 22.7288016,8.10137739 Z M20.4392299,2.49702261 C20.1220589,2.50077913 19.9875206,2.43535304 20.0110963,2.08912696 C20.0419018,1.63051826 20.036558,1.16752696 20.0123536,0.708292174 C19.9956935,0.392118261 20.1094853,0.313231304 20.4165972,0.314796522 C22.6789155,0.327005217 24.9412338,0.321370435 27.2038664,0.321370435 C29.453611,0.321370435 31.7033556,0.326692174 33.9534145,0.315109565 C34.254554,0.313544348 34.376833,0.380222609 34.3579725,0.703596522 C34.3309391,1.17504 34.3328251,1.65024 34.3586012,2.12199652 C34.374947,2.42627478 34.264613,2.49670957 33.9757328,2.49577043 C30.8008802,2.48669217 27.6263418,2.49013565 24.4514892,2.49013565 C23.1139646,2.49013565 21.7764401,2.48074435 20.4392299,2.49702261 Z M12.23211,11.2150017 C12.1107741,11.2369148 11.9828369,11.2222017 11.8577289,11.2222017 C7.90802358,11.2250191 3.95800393,11.2275235 0.00829862475,11.2300278 C0.00704125737,11.9481496 0.00578388998,12.6665843 0.00484086444,13.3850191 C4.45183497,13.3872104 8.89882908,13.3897148 13.3461375,13.391593 C14.411442,13.3919061 14.9829155,12.8663061 14.9876306,11.8010191 C15.0020904,8.5290887 15.0014617,5.25715826 14.987002,1.98554087 C14.9822868,0.873610435 14.3884951,0.319836522 13.2851552,0.320149565 C9.00004715,0.321088696 4.71525344,0.32234087 0.430459725,0.327036522 C0.286491159,0.327036522 0.128691552,0.274445217 -0.000188605108,0.391210435 C0.00138310413,2.95503652 0.00295481336,5.51886261 0.00421218075,8.0826887 C0.604290766,8.08456696 1.20468369,8.07048 1.80381925,8.09552348 C2.11407466,8.1086713 2.17820039,7.99159304 2.176,7.7082887 C2.16374067,6.11521043 2.17725737,4.52181913 2.16185462,2.92842783 C2.1587112,2.60254957 2.22377996,2.47983652 2.58810216,2.48171478 C5.70040079,2.49642783 8.81301375,2.48954087 11.9253124,2.48891478 C12.0755678,2.48891478 12.2220511,2.49361043 12.3685344,2.54244522 C12.624723,2.62790609 12.7595756,2.78818435 12.7592613,3.06397565 C12.7573752,5.59086261 12.7573752,8.11774957 12.7580039,10.6449496 C12.7580039,10.9977496 12.5464519,11.1583409 12.23211,11.2150017" id="Logo_DEEPGLINT"></path>
                </g>
            </g>
        </g>
    </g>
</svg>