<?xml version="1.0" encoding="UTF-8"?>
<svg width="154px" height="34px" viewBox="0 0 154 34" version="1.1" xmlns="http://www.w3.org/2000/svg" xmlns:xlink="http://www.w3.org/1999/xlink">
    <!-- Generator: Sketch 52.5 (67469) - http://www.bohemiancoding.com/sketch -->
    <title>Logo_DeepCloud</title>
    <desc>Created with Sketch.</desc>
    <g id="0_Login" stroke="none" stroke-width="1" fill="none" fill-rule="evenodd">
        <g id="1_Login_DEEPGLINT" transform="translate(-987.000000, -976.000000)" fill="#B0BCD4">
            <g id="Down" transform="translate(646.000000, 975.000000)">
                <g id="Logo" transform="translate(133.000000, 0.000000)">
                    <path d="M337.060098,28.821384 C337.053842,28.834168 337.044595,28.845864 337.038339,28.858648 C336.83163,29.267192 336.928729,29.428216 337.382401,29.428216 L352.949781,29.428216 C353.703182,29.428216 354.456855,29.428488 355.210256,29.428216 C355.654408,29.427944 355.746068,29.268552 355.527391,28.873064 C354.033373,26.170744 352.538539,23.468424 351.044249,20.766104 C350.99366,20.674712 350.945518,20.581416 350.884593,20.466904 C351.757124,20.466904 352.603816,20.502264 353.445884,20.453304 C353.92757,20.42556 354.16583,20.585768 354.39457,21.00492 C355.66964,23.337864 356.979795,25.651768 358.279616,27.971384 C358.58288,28.513208 358.822227,29.073528 358.822499,29.710008 C358.822771,30.578232 358.367195,31.25116 357.564293,31.57892 C357.078254,31.77748 356.572905,31.838952 356.052324,31.83868 C349.506985,31.836504 342.961102,31.836776 336.415492,31.838408 C336.091557,31.838408 335.770613,31.822632 335.45511,31.749464 C334.565988,31.543016 333.879768,31.086872 333.643956,30.155272 C333.465806,29.450248 333.637973,28.774872 333.962452,28.141928 C334.640784,26.82028 335.33054,25.504344 336.017033,24.186776 C337.221386,21.87532 338.426555,19.564408 339.631724,17.253224 C339.667354,17.184952 339.701896,17.116408 339.750582,17.021208 L339.504435,17.021208 C336.82755,17.021208 334.150394,17.019032 331.473238,17.025832 C331.291551,17.026376 331.252113,16.980408 331.254561,16.80388 C331.265168,16.028952 331.265984,15.25348 331.254017,14.478552 C331.251569,14.294952 331.30243,14.26068 331.477317,14.260952 C337.441422,14.265848 343.405799,14.265032 349.370176,14.26476 L361.147978,14.26476 L361.147978,17.021208 C355.198016,17.021208 349.248327,17.022024 343.298365,17.016584 C343.130006,17.016584 343.049226,17.068264 342.975518,17.21324 C341.00634,21.084072 339.033083,24.952456 337.060098,28.821384 Z M333.822569,7.894928 C333.628644,7.8952 333.576694,7.849776 333.579686,7.653392 C333.592197,6.885808 333.591381,6.117408 333.579958,5.349824 C333.57751,5.169488 333.622932,5.129776 333.801083,5.129776 C340.188669,5.135216 346.5768,5.1344 352.964659,5.1344 C354.873728,5.1344 356.783068,5.136848 358.692408,5.129776 C358.870559,5.12896 358.915709,5.169488 358.912989,5.349824 C358.901837,6.12448 358.901837,6.899952 358.912989,7.67488 C358.915709,7.855216 358.870287,7.8952 358.692408,7.894928 C354.543809,7.889216 350.395209,7.890304 346.246609,7.890304 C342.105081,7.890304 337.963825,7.889216 333.822569,7.894928 Z M287.881146,22.1882016 C289.280785,24.8733856 290.679336,27.5588416 292.087407,30.2396736 C292.188585,30.4322496 292.192937,30.5059616 291.975893,30.6044256 C291.312791,30.9052576 290.660297,31.2292096 290.010251,31.5577856 C289.850867,31.6382976 289.788583,31.6119136 289.707803,31.4582336 C288.084863,28.3721216 286.455124,25.2898176 284.833545,22.2031616 C284.741342,22.0277216 284.640163,21.9613536 284.441613,21.9692416 C284.025747,21.9861056 283.608793,21.9842016 283.192927,21.9695136 C283.014776,21.9635296 282.970714,22.0084096 282.970986,22.1892896 C282.977514,25.2830176 282.97561,28.3770176 282.97561,31.4707456 C282.97561,31.5137216 282.969898,31.5575136 282.976698,31.5999456 C283.000089,31.7519936 282.93726,31.7922496 282.787124,31.7906176 C282.033451,31.7830016 281.279778,31.7810976 280.526106,31.7919776 C280.347411,31.7944256 280.302261,31.7490016 280.302805,31.5697536 C280.309333,29.4810656 280.306885,27.3923776 280.306885,25.3034176 C280.306885,24.2556736 280.303621,23.2073856 280.310693,22.1596416 C280.311781,22.0086816 280.274791,21.9673376 280.122751,21.9703296 C279.649223,21.9809376 279.175152,21.9809376 278.701625,21.9706016 C278.551761,21.9673376 278.479684,22.0165696 278.409512,22.1495776 C276.753662,25.2919936 275.090469,28.4306016 273.435979,31.5735616 C273.345952,31.7446496 273.287203,31.7742976 273.109868,31.6793696 C272.455199,31.3284896 271.791009,30.9955616 271.127092,30.6620896 C270.988379,30.5924576 270.950301,30.5424096 271.035433,30.3822016 C272.487293,27.6513216 273.930178,24.9158176 275.374966,22.1816736 C275.407605,22.1199296 275.437523,22.0570976 275.478865,21.9744096 L274.256561,21.9744096 C273.316306,21.9744096 272.376051,21.9711456 271.435796,21.9779456 C271.293275,21.9787616 271.259821,21.9390496 271.260909,21.8003296 C271.267437,21.0109856 271.269068,20.2213696 271.260093,19.4317536 C271.258189,19.2650176 271.298715,19.2193216 271.469794,19.2195936 C274.333805,19.2253056 277.197815,19.2209536 280.061826,19.2293856 C280.277511,19.2302016 280.315045,19.1692736 280.312053,18.9693536 C280.299813,18.1441056 280.312869,17.3185856 280.302261,16.4930656 C280.300085,16.3178976 280.353667,16.2847136 280.51577,16.2866176 C281.269171,16.2950496 282.023116,16.2950496 282.776516,16.2866176 C282.934268,16.2847136 282.981866,16.3187136 282.979962,16.4846336 C282.970442,17.3242976 282.980778,18.1642336 282.971258,19.0041696 C282.969082,19.1777056 283.003896,19.2288416 283.188847,19.2285696 C286.016955,19.2217696 288.845064,19.2261216 291.6729,19.2187776 C291.881241,19.2179616 291.935095,19.2690976 291.931831,19.4771776 C291.918232,20.2447616 291.920679,21.0134336 291.931015,21.7812896 C291.932919,21.9493856 291.881785,21.9784896 291.72621,21.9782176 C290.420134,21.9716896 289.114058,21.9744096 287.804174,21.9744096 C287.782143,22.0674336 287.84742,22.1237376 287.881146,22.1882016 Z M285.565812,10.4170208 C287.466993,11.8471968 289.367902,13.2781888 291.269899,14.7067328 C291.369446,14.7818048 291.414323,14.8315808 291.313417,14.9545248 C290.816771,15.5575488 290.328284,16.1679168 289.843877,16.7810048 C289.764729,16.8819168 289.720124,16.8987808 289.611329,16.8163648 C287.71586,15.3785728 285.818215,13.9445888 283.917034,12.5146848 C283.794369,12.4224768 283.790289,12.3718848 283.886028,12.2541088 C284.364723,11.6638688 284.832267,11.0646528 285.304978,10.4697888 C285.3436,10.4216448 285.370799,10.3588128 285.446955,10.3348768 C285.484761,10.3609888 285.526375,10.3876448 285.565812,10.4170208 Z M278.290192,10.3336256 C278.360364,10.2808576 278.415849,10.2014336 278.512676,10.3257376 C279.01585,10.9692896 279.528543,11.6057696 280.037973,12.2444256 C280.05538,12.2664576 280.072243,12.2895776 280.089378,12.3121536 C280.070883,12.3858656 280.001799,12.4062656 279.953385,12.4432576 C278.613583,13.4629856 277.272421,14.4805376 275.931259,15.4983616 C275.292364,15.9833376 274.650206,16.4650496 274.015935,16.9568256 C273.890549,17.0542016 273.83996,17.0471296 273.747213,16.9130336 C273.303332,16.2711136 272.846396,15.6381696 272.390548,15.0046816 C272.318471,14.9048576 272.294809,14.8501856 272.418834,14.7571616 C274.378764,13.2864576 276.333798,11.8092256 278.290192,10.3336256 Z M271.261589,10.7918368 C271.267301,9.7726528 271.215351,8.7504768 271.2809,7.7356448 C271.354336,6.6068448 272.00275,5.8362688 273.034392,5.3929088 C273.479905,5.2011488 273.952888,5.1331488 274.437839,5.1334208 C276.87728,5.1353248 279.317265,5.1342368 281.756977,5.1342368 C284.196962,5.1342368 286.636675,5.1508288 289.076116,5.1274368 C290.33813,5.1154688 291.620815,6.0291168 291.909392,7.3431488 C291.953998,7.5463328 291.982012,7.7506048 291.981468,7.9597728 C291.979564,8.8494848 291.977116,9.7394688 291.984188,10.6291808 C291.985276,10.7771488 291.951822,10.8217568 291.797606,10.8201248 C291.030062,10.8116928 290.261974,10.8114208 289.494158,10.8201248 C289.335318,10.8220288 289.30812,10.7684448 289.310296,10.6253728 C289.318999,10.1229888 289.314647,9.6206048 289.313287,9.1184928 C289.311927,8.4491008 288.808482,7.9295808 288.139669,7.9271328 C286.561063,7.9216928 284.982185,7.9252288 283.403852,7.9249568 C280.662235,7.9249568 277.921162,7.9412768 275.180088,7.9129888 C274.542554,7.9067328 273.862317,8.4485568 273.914266,9.1758848 C273.952073,9.7041088 273.917258,10.2372288 273.924602,10.7681728 C273.926506,10.9101568 273.884348,10.9487808 273.742099,10.9474208 C272.967212,10.9403488 272.192324,10.9417088 271.417165,10.9468768 C271.295587,10.9476928 271.261045,10.9136928 271.261589,10.7918368 Z M268.943073,23.3046256 C269.058123,23.3669136 269.073898,23.4123376 269.012973,23.5287536 C267.5826,26.2460336 266.15685,28.9654896 264.730013,31.6844016 C264.702814,31.7360816 264.689215,31.8000016 264.633186,31.8209456 C264.577157,31.7915696 264.539079,31.7725296 264.501273,31.7521296 C263.804989,31.3732336 263.111153,30.9908016 262.411334,30.6189776 C262.275885,30.5471696 262.273437,30.4946736 262.342249,30.3654736 C263.787038,27.6734896 265.226931,24.9785136 266.663016,22.2821776 C266.736452,22.1442736 266.787041,22.1026576 266.939625,22.1899696 C267.602455,22.5702256 268.27154,22.9396016 268.943073,23.3046256 Z M262.354325,15.7414752 C262.343174,15.7333152 262.33583,15.7199872 262.320871,15.7017632 C262.835196,15.0087072 263.352785,14.3151072 263.864935,13.6171552 C263.957138,13.4917632 264.008815,13.5951232 264.06566,13.6380992 C264.75188,14.1548992 265.436469,14.6744192 266.121329,15.1931232 C266.920151,15.7985952 267.717342,16.4065152 268.520244,17.0065472 C268.641277,17.0968512 268.648077,17.1482592 268.551794,17.2673952 C268.057324,17.8804832 267.572373,18.5014592 267.087966,19.1232512 C267.021058,19.2092032 266.980804,19.2467392 266.87337,19.1651392 C265.369288,18.0211072 263.861127,16.8819712 262.354325,15.7414752 Z M268.842384,8.9345664 C268.934043,9.0036544 269.026246,9.0719264 269.117361,9.1412864 C269.14456,9.1619584 269.169311,9.1858944 269.201405,9.2136384 C269.171759,9.2549824 269.147008,9.2892544 269.121713,9.3232544 C268.640026,9.9736064 268.156708,10.6234144 267.677469,11.2756704 C267.615728,11.3594464 267.575202,11.3809344 267.480279,11.3088544 C265.962598,10.1558464 264.442197,9.0063744 262.920165,7.8593504 C262.832041,7.7929824 262.817082,7.7540864 262.888614,7.6607904 C263.382541,7.0194144 263.874019,6.3758624 264.355162,5.7246944 C264.454165,5.5905984 264.50829,5.6632224 264.586894,5.7225184 C266.0053,6.7936544 267.423978,7.8639744 268.842384,8.9345664 Z M305.088057,18.765272 C305.088329,21.923464 305.084793,25.081656 305.090505,28.239576 C305.091865,28.970984 304.934385,29.646088 304.477449,30.228984 C303.969923,30.874984 303.324501,31.275912 302.480529,31.280536 C301.267744,31.287064 300.054687,31.292776 298.841902,31.279176 C297.783334,31.267208 296.812888,30.550488 296.415789,29.523416 C296.2749,29.159208 296.201736,28.784392 296.201736,28.392984 C296.202824,21.990648 296.200648,15.588312 296.203912,9.185976 C296.204728,7.645096 297.489589,6.364792 299.042084,6.353096 C300.183065,6.34412 301.324589,6.345208 302.46557,6.353096 C303.581255,6.36044 304.830486,7.436744 305.029852,8.542424 C305.074457,8.79076 305.088329,9.039912 305.088329,9.290968 C305.088057,12.44916 305.088057,15.607352 305.088057,18.765272 Z M302.273548,21.11508 C302.400293,21.115624 302.45877,21.101752 302.457954,20.947256 C302.450882,19.490696 302.45197,18.034408 302.457138,16.577848 C302.457682,16.444024 302.42314,16.4122 302.290683,16.413016 C301.19322,16.418456 300.095485,16.419272 298.998022,16.412472 C298.850062,16.411384 298.825039,16.459528 298.826399,16.592808 C298.832655,17.310344 298.829391,18.027608 298.829391,18.745144 C298.829391,19.477096 298.833199,20.208776 298.825855,20.940184 C298.824223,21.081352 298.862029,21.116984 299.002102,21.116168 C300.092493,21.109912 301.182884,21.111 302.273548,21.11508 Z M302.268652,28.612216 C302.4177,28.613032 302.459858,28.57876 302.457954,28.425896 C302.44925,27.686872 302.453874,26.947848 302.453874,26.209096 C302.453874,25.462728 302.449794,24.716632 302.45741,23.970536 C302.459042,23.82556 302.430211,23.77796 302.274091,23.779048 C301.183428,23.786392 300.093037,23.785576 299.002646,23.779864 C298.863933,23.779048 298.825311,23.812776 298.825855,23.95476 C298.831295,25.446952 298.832111,26.939416 298.825039,28.431336 C298.824223,28.592088 298.878349,28.612488 299.018965,28.611944 C300.102557,28.60596 301.185604,28.605416 302.268652,28.612216 Z M298.825855,9.334216 C298.831567,10.704552 298.831839,12.074888 298.825855,13.444952 C298.825311,13.589656 298.868829,13.619576 299.005366,13.61876 C300.095757,13.613592 301.186148,13.612232 302.276539,13.619848 C302.437827,13.621208 302.45877,13.563816 302.45741,13.424008 C302.45061,12.74972 302.454418,12.075432 302.454418,11.400872 C302.454418,10.719512 302.451154,10.03788 302.457138,9.35652 C302.458226,9.225688 302.437555,9.172648 302.286603,9.173736 C301.18914,9.17972 300.091677,9.177544 298.993943,9.17156 C298.865565,9.170744 298.825311,9.197672 298.825855,9.334216 Z M314.844922,18.0906848 C314.974116,18.0915008 315.0364,18.0738208 315.031505,17.9201408 C315.019537,17.5477728 315.025793,17.1745888 315.028785,16.8019488 C315.029601,16.7056608 315.026609,16.6431008 314.896328,16.6436448 C313.254893,16.6474528 311.613187,16.6471808 309.971752,16.6439168 C309.855886,16.6439168 309.82488,16.6839008 309.826512,16.7932448 C309.831408,17.1588128 309.836575,17.5249248 309.824336,17.8902208 C309.818896,18.0520608 309.86595,18.0942208 310.027782,18.0923168 C310.823612,18.0836128 311.619171,18.0882368 312.414729,18.0882368 C313.224975,18.0882368 314.034949,18.0860608 314.844922,18.0906848 Z M314.848458,22.0409408 C314.979555,22.0417568 315.035856,22.0205408 315.031505,21.8698528 C315.020081,21.4686528 315.024433,21.0666368 315.029873,20.6654368 C315.031233,20.5558208 315.020353,20.5014208 314.884632,20.5016928 C313.250541,20.5068608 311.616179,20.5063168 309.981816,20.5025088 C309.858878,20.5022368 309.82352,20.5384128 309.825696,20.6597248 C309.832768,21.0541248 309.837119,21.4485248 309.824336,21.8423808 C309.818896,22.0099328 309.875741,22.0433888 310.031589,22.0417568 C310.834219,22.0344128 311.637122,22.0384928 312.440024,22.0384928 C313.242654,22.0384928 314.045828,22.0357728 314.848458,22.0409408 Z M317.672759,21.8151808 C317.666775,21.9892608 317.707301,22.0458368 317.892523,22.0431168 C318.666595,22.0316928 319.440667,22.0384928 320.21501,22.0384928 C321.010569,22.0384928 321.806399,22.0346848 322.60223,22.0417568 C322.743118,22.0431168 322.781468,22.0053088 322.778205,21.8649568 C322.768685,21.4637568 322.771133,21.0622848 322.777117,20.6608128 C322.779021,20.5460288 322.756446,20.5016928 322.628068,20.5019648 C321.029336,20.5065888 319.430875,20.5074048 317.832415,20.5014208 C317.687446,20.5008768 317.672487,20.5558208 317.674663,20.6755008 C317.68119,21.0552128 317.686358,21.4357408 317.672759,21.8151808 Z M317.673575,17.9008288 C317.669223,18.0515168 317.714917,18.0934048 317.865053,18.0917728 C318.6549,18.0847008 319.444202,18.0882368 320.233777,18.0882368 C321.023352,18.0882368 321.812927,18.0860608 322.60223,18.0906848 C322.722175,18.0912288 322.7831,18.0789888 322.778477,17.9323808 C322.767325,17.5523968 322.771405,17.1715968 322.777117,16.7913408 C322.778749,16.6817248 322.750462,16.6436448 322.634324,16.6439168 C321.033688,16.6471808 319.433051,16.6474528 317.832415,16.6436448 C317.708661,16.6433728 317.672487,16.6811808 317.674663,16.8027648 C317.681462,17.1683328 317.68391,17.5349888 317.673575,17.9008288 Z M325.853276,29.4518528 C326.041218,29.4510368 326.093712,29.4931968 326.089632,29.6860448 C326.076033,30.3317728 326.076305,30.9780448 326.089632,31.6237728 C326.093168,31.8103648 326.035507,31.8416448 325.863068,31.8413728 C322.690625,31.8356608 319.518455,31.8372928 316.346284,31.8372928 C313.188257,31.8372928 310.030229,31.8353888 306.872474,31.8419168 C306.678548,31.8421888 306.622791,31.7975808 306.627143,31.5987488 C306.641014,30.9600928 306.642102,30.3211648 306.626327,29.6825088 C306.621703,29.4820448 306.68698,29.4521248 306.867306,29.4523968 C309.508561,29.4581088 312.149543,29.4534848 314.790797,29.4616448 C314.994786,29.4621888 315.042656,29.4028928 315.031777,29.2124928 C315.016273,28.9260768 315.016545,28.6374848 315.032049,28.3516128 C315.041568,28.1846048 314.987171,28.1535968 314.830235,28.1541408 C312.368763,28.1593088 309.90702,28.1552288 307.445276,28.1625728 C307.242103,28.1631168 307.17873,28.1204128 307.183898,27.9071648 C307.199945,27.2617088 307.196953,26.6151648 307.185258,25.9694368 C307.181722,25.7784928 307.224424,25.7197408 307.427597,25.7202848 C309.882269,25.7281728 312.336941,25.7230048 314.791613,25.7303488 C314.989619,25.7308928 315.045376,25.6794848 315.032049,25.4858208 C315.014913,25.2287808 315.016273,24.9687488 315.031777,24.7114368 C315.0432,24.5240288 314.999138,24.4620128 314.794333,24.4633728 C313.222799,24.4734368 311.650721,24.4500448 310.079459,24.4742528 C308.452984,24.4990048 307.199129,23.1324768 307.191241,21.5997568 C307.183898,20.1214368 307.182538,18.6425728 307.192329,17.1642528 C307.201305,15.7403328 308.104026,14.6273088 309.47701,14.3324608 C309.664408,14.2922048 309.861326,14.2802368 310.05362,14.2799648 C314.20222,14.2772448 318.350547,14.2859488 322.498875,14.2742528 C324.255088,14.2690848 325.372405,15.6794048 325.388724,17.1405888 C325.405044,18.6333248 325.402324,20.1263328 325.389268,21.6193408 C325.377029,22.9921248 324.475668,24.1184768 323.184551,24.4067968 C322.967779,24.4552128 322.74611,24.4704448 322.52281,24.4701728 C320.979562,24.4674528 319.436587,24.4723488 317.893339,24.4644608 C317.713829,24.4633728 317.661063,24.5060768 317.672487,24.6861408 C317.689622,24.9507968 317.688262,25.2176288 317.673031,25.4825568 C317.662151,25.6694208 317.705669,25.7317088 317.910746,25.7308928 C320.308029,25.7224608 322.70504,25.7251808 325.102323,25.7251808 C325.392532,25.7251808 325.392532,25.7251808 325.392532,26.0262848 C325.392532,26.6434528 325.393892,27.2608928 325.391988,27.8780608 C325.391172,28.1848768 325.436866,28.1574048 325.121906,28.1574048 C322.724895,28.1582208 320.327612,28.1603968 317.930601,28.1527808 C317.726884,28.1519648 317.656168,28.1938528 317.671943,28.4073728 C317.692614,28.6929728 317.684998,28.9812928 317.673575,29.2679808 C317.667591,29.4189408 317.714645,29.4611008 317.865053,29.4597408 C318.690802,29.4523968 319.516007,29.4562048 320.341212,29.4562048 C322.178748,29.4562048 324.016012,29.4594688 325.853276,29.4518528 Z M319.46335,9.2312912 L313.124721,9.2312912 C313.362164,9.6686672 313.591448,10.0870032 313.815565,10.5083312 C313.855819,10.5839472 313.905592,10.6021712 313.985556,10.6018992 C315.521188,10.5999952 317.056548,10.5997232 318.59218,10.6021712 C318.6716,10.6021712 318.723549,10.5855792 318.763803,10.5110512 C318.990367,10.0910832 319.221011,9.6732912 319.46335,9.2312912 Z M306.895974,13.2946992 C306.696336,13.2949712 306.627524,13.2590672 306.631875,13.0414672 C306.647651,12.3095152 306.644115,11.5772912 306.633507,10.8453392 C306.630787,10.6573872 306.66805,10.5931952 306.873943,10.5950992 C308.122902,10.6059792 309.371589,10.6002672 310.620547,10.6002672 L310.860439,10.6002672 C310.612932,10.1452112 310.378208,9.7146352 310.1443,9.2835152 C310.095343,9.1923952 310.010483,9.2179632 309.935415,9.2176912 C309.181742,9.2166032 308.42807,9.2119792 307.674669,9.2212272 C307.510934,9.2234032 307.471768,9.1790672 307.473672,9.0185872 C307.482375,8.2433872 307.484007,7.4681872 307.472584,6.6929872 C307.469864,6.5180912 307.531876,6.5009552 307.679565,6.5012272 C310.091263,6.5055792 312.502961,6.5028592 314.914387,6.5074832 C315.10097,6.5077552 315.20922,6.4873552 315.117289,6.2700272 C315.109129,6.2512592 315.111849,6.2275952 315.110761,6.2063792 C315.101786,6.0235952 314.956001,5.7986512 315.066156,5.6773392 C315.16951,5.5636432 315.409402,5.5723472 315.590272,5.5310032 C316.091542,5.4164912 316.594172,5.3087792 317.093538,5.1871952 C317.24857,5.1493872 317.304327,5.1915472 317.330437,5.3446832 C317.384563,5.6615632 317.462351,5.9740912 317.51838,6.2904272 C317.545306,6.4443792 317.595896,6.5099312 317.774046,6.5093872 C320.279036,6.5020432 322.784025,6.5069392 325.289014,6.4993232 C325.490284,6.4985072 325.533802,6.5550832 325.531082,6.7468432 C325.51993,7.5076272 325.522378,8.2686832 325.529994,9.0294672 C325.531626,9.1809712 325.488652,9.2217712 325.337972,9.2206832 C324.448034,9.2136112 323.558097,9.2201392 322.667887,9.2144272 C322.523191,9.2133392 322.439147,9.2467952 322.370335,9.3876912 C322.174777,9.7899792 321.957732,10.1816592 321.737152,10.6002672 L321.978131,10.6002672 C323.284479,10.6002672 324.590827,10.6029872 325.896903,10.5970032 C326.045407,10.5964592 326.089469,10.6318192 326.087837,10.7849552 C326.079677,11.5457392 326.078317,12.3067952 326.088381,13.0675792 C326.090829,13.2443792 326.047039,13.2955152 325.866168,13.2944272 C324.660455,13.2862672 323.454742,13.2903472 322.248757,13.2903472 C317.131344,13.2903472 312.013659,13.2892592 306.895974,13.2946992 Z M254.370862,3.5115936 C254.37467,7.2657376 254.373854,11.0196096 254.374941,14.7737536 C254.375485,16.7838336 254.376845,18.7936416 254.375485,20.8034496 C254.374941,21.9542816 253.696881,22.8709216 252.612201,23.1951456 C252.371222,23.2672256 252.125891,23.3088416 251.872672,23.3088416 C244.092246,23.3080256 236.311548,23.3080256 228.530849,23.3129216 C228.362762,23.3131936 228.321148,23.2713056 228.321692,23.1037536 C228.32958,21.4597856 228.324412,19.8160896 228.332844,18.1723936 C228.333932,17.9936896 228.291774,17.9512576 228.112535,17.9512576 C223.662303,17.9504416 219.212071,17.9428256 214.762111,17.9365696 C213.963017,17.9352096 213.594476,18.3056736 213.594476,19.1069856 C213.594476,22.1147616 213.594476,25.1222656 213.594204,28.1297696 C213.594204,28.8236416 213.984504,29.2155936 214.685139,29.2155936 C218.022677,29.2158656 221.360487,29.2142336 224.698025,29.2134176 C225.602378,29.2131456 226.506731,29.2134176 227.411084,29.2131456 C228.045355,29.2128736 228.458501,28.7988896 228.457413,28.1634976 C228.455781,27.3956416 228.455781,26.6272416 228.447622,25.8593856 C228.446262,25.7266496 228.469109,25.6760576 228.619245,25.6766016 C230.370833,25.6825856 232.12215,25.6814976 233.873467,25.6782336 C233.994228,25.6779616 234.051073,25.6931936 234.050257,25.8378976 C234.036658,28.0272256 234.04373,30.2168256 234.015171,32.4056096 C233.99994,33.5746656 233.187518,34.4725376 232.028043,34.6806176 C231.902113,34.7031936 231.773464,34.7138016 231.645903,34.7298496 C231.185975,34.7622176 230.725231,34.7350176 230.265031,34.7437216 C229.519518,34.7437216 228.774005,34.7439936 228.02822,34.7437216 C227.238917,34.7437216 226.449342,34.7439936 225.659767,34.7437216 C224.82749,34.7437216 223.994942,34.7439936 223.162937,34.7437216 C222.401649,34.7437216 221.640633,34.7439936 220.879616,34.7437216 C220.104457,34.7437216 219.329025,34.7439936 218.553594,34.7437216 C217.721045,34.7437216 216.888224,34.7439936 216.055676,34.7437216 C215.109165,34.7437216 214.162927,34.7439936 213.216416,34.7437216 C212.301184,34.7437216 211.385951,34.7431776 210.470719,34.7450816 C210.393475,34.7450816 210.313239,34.7241376 210.239259,34.7660256 L210.196285,34.7660256 C210.063828,34.6768096 209.902541,34.6863296 209.756484,34.6422656 C208.710699,34.3272896 208.001904,33.3943296 208.001632,32.3060576 C208,26.4847136 207.999456,20.6633696 208.000816,14.8420256 C208.001088,13.6291776 208.911968,12.6061856 210.108434,12.4541376 C210.315687,12.4277536 210.521852,12.4179616 210.730194,12.4182336 C216.515332,12.4185056 222.30047,12.4176896 228.085609,12.4225856 C228.270831,12.4225856 228.333388,12.3910336 228.333116,12.1856736 C228.331212,8.5463136 228.340187,4.9072256 228.339099,1.2678656 C228.339099,1.0616896 228.392137,1.0081056 228.599662,1.0081056 C236.373016,1.0094656 244.146643,1.0034816 251.919998,1.0002176 C253.295702,0.9996736 254.369502,2.0977376 254.370862,3.5115936 Z M248.77149,16.6353216 C248.772034,13.6359776 248.771218,10.6363616 248.772034,7.6370176 C248.772306,6.9134976 248.370311,6.5120256 247.639757,6.5122976 C243.140839,6.5136576 238.641922,6.5166496 234.143005,6.5131136 C233.960502,6.5128416 233.903929,6.5462976 233.903929,6.7434976 C233.902297,9.3476256 233.939287,11.9517536 233.899849,14.5556096 C233.88489,15.5459616 233.902569,16.5363136 233.89305,17.5263936 C233.891146,17.7181536 233.933032,17.7779936 234.136477,17.7771776 C236.396951,17.7692896 238.656881,17.7725536 240.917355,17.7725536 C243.141655,17.7725536 245.365955,17.7730976 247.590255,17.7709216 C247.733048,17.7709216 247.87992,17.7679296 248.017273,17.7347456 C248.522351,17.6126176 248.77149,17.2432416 248.77149,16.6353216 Z" id="Logo_DeepCloud"></path>
                </g>
            </g>
        </g>
    </g>
</svg>