<?xml version="1.0" encoding="UTF-8"?>
<svg width="100px" height="100px" viewBox="0 0 100 100" version="1.1" xmlns="http://www.w3.org/2000/svg" xmlns:xlink="http://www.w3.org/1999/xlink">
    <!-- Generator: Sketch 52.5 (67469) - http://www.bohemiancoding.com/sketch -->
    <title>Img/Card_TimeOver</title>
    <desc>Created with Sketch.</desc>
    <g id="Img/Card_TimeOver" stroke="none" stroke-width="1" fill="none" fill-rule="evenodd">
        <path d="M90.0000015,53.87104 C87.5900832,52.6734125 84.8736835,52 82,52 C78.5000416,52 75.2333926,52.9989162 72.4695991,54.7272024 L64,43 L54.487047,56.1718543 L39.08275,35 L20.0000734,61 L15,61 C13.8954305,61 13,61.8954305 13,63 L13,72 C13,73.6568542 14.3431458,75 16,75 L64.7035333,75 C65.004197,76.0419366 65.3964603,77.0450312 65.8710393,78 L14,78 C11.790861,78 10,76.209139 10,74 L10,22 C10,19.790861 11.790861,18 14,18 L86,18 C88.209139,18 90,19.790861 90,22 L90,53.8710332 Z M76,39 C79.8659932,39 83,35.8659932 83,32 C83,28.1340068 79.8659932,25 76,25 C72.1340068,25 69,28.1340068 69,32 C69,35.8659932 72.1340068,39 76,39 Z M82,86 C73.163444,86 66,78.836556 66,70 C66,61.163444 73.163444,54 82,54 C90.836556,54 98,61.163444 98,70 C98,78.836556 90.836556,86 82,86 Z M84.8633691,70.8977368 L95.5178458,70.5172198 C95.7868714,70.5076117 96,70.2867355 96,70.0175384 L96,69.9824616 C96,69.7132645 95.7868714,69.4923883 95.5178458,69.4827802 L84.8633691,69.1022632 C84.6229188,68.3345577 84.0822408,67.699612 83.3788615,67.3349524 L83.0433906,59.9545923 C83.0191143,59.4205156 82.5790502,59 82.044422,59 L81.9553532,59 C81.420816,59 80.9807929,59.4203774 80.9563954,59.9543576 L80.6191282,67.3359956 C79.6571398,67.835653 79,68.8410849 79,70 C79,71.6568542 80.3431458,73 82,73 C83.344125,73 84.4817895,72.1160375 84.8633691,70.8977368 Z" id="Sky-2" fill="#EAEDF1"></path>
    </g>
</svg>